<?xml version="1.0" encoding="iso-8859-1"?>
<!-- Generator: Adobe Illustrator 19.0.0, SVG Export Plug-In . SVG Version: 6.00 Build 0)  -->
<svg version="1.1" id="Layer_1" xmlns="http://www.w3.org/2000/svg" xmlns:xlink="http://www.w3.org/1999/xlink" x="0px" y="0px"
	 viewBox="0 0 512 512" style="enable-background:new 0 0 512 512;" xml:space="preserve">
<path style="fill:#EA473B;" d="M288.518,72.47c-3.047-2.987-3.096-7.879-0.108-10.927l36.319-37.044
	c2.77-2.824,7.225-3.101,10.322-0.641l23.676,18.801c3.341,2.653,3.899,7.513,1.246,10.855c-2.653,3.341-7.514,3.9-10.856,1.245
	l-18.226-14.473l-31.447,32.075C296.455,75.411,291.562,75.456,288.518,72.47z"/>
<path style="fill:#A36D50;" d="M498.252,365.777c-0.665-22.893-19.419-41.253-42.475-41.253h-37.72v-81.288
	c0-16.095-13.048-29.143-29.145-29.143H41.602c-16.097,0-29.145,13.048-29.145,29.143c0,7.521,0,174.052,0,181.595
	c5.821,0,331.436,0,336.708,0c0,0.004,0,0.008-0.002,0.012c0.001-0.004,0.002-0.008,0.003-0.012c10.907,0,143.384,0,149.118,0
	c0-6.902,0-52.158,0-59.054H498.252z"/>
<g>
	<path style="fill:#895437;" d="M40.24,243.236c0-16.095,13.048-29.143,29.145-29.143H41.602c-16.097,0-29.145,13.048-29.145,29.143
		c0,7.521,0,174.052,0,181.595c14.526,0,13.211,0,27.783,0C40.24,417.287,40.24,250.753,40.24,243.236z"/>
	<polygon style="fill:#895437;" points="349.163,424.844 349.166,424.832 349.165,424.832 	"/>
</g>
<path style="fill:#BABABA;" d="M498.978,422.771c-21.315,0-24.113,0-44.952,0c-25.855,0-417.214,0-440.993,0
	c-7.191,0-13.022,5.831-13.022,13.022c0,7.193,5.831,13.024,13.022,13.024c23.658,0,432.837,0,459.587,0h26.358
	c7.193,0,13.022-5.831,13.022-13.024C512,428.602,506.171,422.771,498.978,422.771z"/>
<path style="fill:#9E9D9D;" d="M498.978,435.795c-38.081,0-467.062,0-485.945,0c-4.817,0-9.013-2.623-11.266-6.512
	c-5.019,8.665,1.251,19.535,11.266,19.535c4.069,0,479.817,0,485.945,0c7.193,0,13.022-5.831,13.022-13.024
	c0-2.374-0.646-4.594-1.756-6.511C507.991,433.172,503.796,435.795,498.978,435.795z"/>
<path style="fill:#6EDCF9;" d="M392.193,312.023v-53.481c0-6.903-5.598-12.501-12.501-12.501h-46.36
	c-6.905,0-12.503,5.598-12.503,12.501v53.481c0,6.903,5.598,12.501,12.503,12.501h46.36
	C386.596,324.524,392.193,318.926,392.193,312.023z"/>
<path style="fill:#49B5CE;" d="M351.185,312.023v-53.481c0-6.903,5.598-12.501,12.503-12.501h-30.356
	c-6.905,0-12.503,5.598-12.503,12.501v53.481c0,6.903,5.598,12.501,12.503,12.501h30.356
	C356.783,324.524,351.185,318.926,351.185,312.023z"/>
<path style="fill:#F2D422;" d="M462.169,378.027c0,10.463,8.481,18.944,18.944,18.944h17.171c0-32.881,0.221-32.737-0.752-37.887
	h-16.418C470.65,359.083,462.169,367.564,462.169,378.027z"/>
<path style="fill:#F7AC16;" d="M464.724,368.555c-7.302,12.608,1.818,28.415,16.389,28.415h17.171v-18.944h-17.171
	C474.105,378.027,468.001,374.212,464.724,368.555z"/>
<path style="fill:#895437;" d="M345.833,358.989h-16.67c-4.267,0-7.726-3.459-7.726-7.726c0-4.268,3.459-7.726,7.726-7.726h16.67
	c4.267,0,7.726,3.459,7.726,7.726C353.559,355.53,350.1,358.989,345.833,358.989z"/>
<path style="fill:#585A60;" d="M294.439,331.528c0,11.781-9.549,21.33-21.33,21.33H61.568c-11.779,0-21.328-9.549-21.328-21.33
	v-64.157c0-11.781,9.549-21.33,21.328-21.33h211.541c11.781,0,21.33,9.549,21.33,21.33V331.528z"/>
<path style="fill:#414356;" d="M40.24,324.524v7.004c0,11.781,9.549,21.33,21.328,21.33h211.541c11.781,0,21.33-9.549,21.33-21.33
	v-7.004H40.24z"/>
<path style="fill:#3F4147;" d="M71.277,331.528v-64.157c0-11.781,9.549-21.33,21.328-21.33H61.568
	c-11.779,0-21.328,9.549-21.328,21.33v64.157c0,11.781,9.549,21.33,21.328,21.33h31.037
	C80.826,352.858,71.277,343.309,71.277,331.528z"/>
<path style="fill:#2D303D;" d="M71.277,331.528v-7.004H40.24v7.004c0,11.781,9.549,21.33,21.328,21.33h31.037
	C80.826,352.858,71.277,343.309,71.277,331.528z"/>
<path style="fill:#F7AC16;" d="M240.255,206.625L240.255,206.625l59.64-77.73l-89.634-50.984l-36.114,91.111h-0.001
	c-3.441,8.046-1.756,15.609,6.145,20.103l39.545,22.493C227.737,216.11,235.093,213.692,240.255,206.625z"/>
<path style="fill:#EA8F18;" d="M207.531,189.375h0.001l36.555-92.224l-33.826-19.24l-36.114,91.111h-0.001
	c-3.441,8.046-1.756,15.609,6.145,20.103l27.892,15.864C204.985,200.347,205.268,194.664,207.531,189.375z"/>
<path style="fill:#CECBCA;" d="M305.064,74.474l-50.455-28.7c-10.082-5.734-19.466-2.644-26.05,6.37v0.002l-4.175,5.348
	l85.385,48.567l3.134-5.942l0,0C317.32,89.815,315.098,80.181,305.064,74.474z"/>
<path style="fill:#BABABA;" d="M260.817,71.205v-0.002c5.138-7.037,12.395-11.438,20.875-10.024l-27.083-15.405
	c-10.082-5.734-19.466-2.644-26.05,6.37v0.002l-4.175,5.348l32.642,18.566L260.817,71.205z"/>
<polygon style="fill:#D3774F;" points="278.086,157.782 196.792,111.542 181.343,150.754 252.277,191.102 "/>
<polygon style="fill:#C16B3D;" points="196.905,111.607 181.38,150.775 215.207,170.015 230.732,130.847 "/>
<ellipse transform="matrix(-0.6772 -0.7358 0.7358 -0.6772 100.7295 401.4027)" style="fill:#D3774F;" cx="138.414" cy="178.606" rx="38.446" ry="31.13"/>
<path style="fill:#C16B3D;" d="M136.449,197.294c-14.378-15.626-15.778-37.728-3.128-49.37c1.63-1.5,3.416-2.749,5.318-3.76
	c-31.811-6.906-47.282,29.294-23.137,55.533c12.525,13.611,30.764,17.811,43.622,10.972
	C151.06,208.918,142.977,204.388,136.449,197.294z"/>
<path style="fill:#AA5530;" d="M138.82,170.178c-13.67-4.157-20.491-15.286-23.503-22.172c-4.931,3.353-8.353,8.111-10.152,13.778
	c5.348,8.742,14.396,18.69,29.16,23.179c16.398,4.985,22.937,19.998,24.866,25.672c5.034-2.698,9.048-6.968,11.449-12.478
	C165.867,188.587,156.387,175.519,138.82,170.178z"/>
<path style="fill:#91472D;" d="M105.166,161.784c4.416,7.218,11.365,15.25,21.961,20.361c-2.451-6.679-3.066-13.554-1.792-19.768
	c-5.093-4.726-8.231-10.291-10.016-14.371C107.52,153.31,105.706,160.583,105.166,161.784z"/>
<path style="fill:#6EDCF9;" d="M130.893,111.542c-0.002-0.004-0.003-0.006-0.005-0.008c-7.061-10.34-21.466-25.706-38.806-12.795
	c-19.24,14.326,17.763,18.887,35.156,20.207C127.468,118.963,135.513,119.466,130.893,111.542z"/>
<path style="fill:#49B5CE;" d="M120.232,99.663c-7.489-5.973-17.237-9.049-28.15-0.924c-15.227,11.338,4.772,16.558,22.399,18.898
	C98.885,111.094,114.141,101.708,120.232,99.663z"/>
<path style="fill:#6EDCF9;" d="M166.824,100.271c0.278-0.966,0.559-2.002,0.838-3.103c0.144-0.797,0.307-1.463,0.486-2.014
	c3.829-16.604,5.648-44.326-22.699-49.879c-32.222-6.312-2.184,35.851,12.188,54.233
	C158.424,100.488,164.107,107.206,166.824,100.271z"/>
<path style="fill:#49B5CE;" d="M155.344,48.671c-2.799-1.479-6.063-2.646-9.895-3.396c-32.222-6.312-2.184,35.851,12.188,54.233
	c0.787,0.98,6.47,7.698,9.187,0.763c0.652-2.27,1.306-5.06,1.324-5.117c0.147-0.64,0.29-1.301,0.431-1.972
	C155.894,75.612,141.366,51.394,155.344,48.671z"/>
<path style="fill:#F2D422;" d="M71.206,290.081l19.874-18.982v-25.058c-11.234,0-19.044,0-29.512,0
	c-11.779,0-21.328,9.549-21.328,21.33v3.728l19.873,18.982C63.177,293.009,68.142,293.009,71.206,290.081z"/>
<path style="fill:#EA473B;" d="M135.494,246.041h-18.995H91.08v25.058l19.873,18.982c3.063,2.928,8.028,2.928,11.093,0
	l19.873-18.982v-25.058H135.494z"/>
<path style="fill:#F2D422;" d="M186.333,246.041h-18.994h-25.421v25.058l19.873,18.982c3.064,2.928,8.03,2.928,11.094,0
	l19.875-18.982v-25.058H186.333z"/>
<path style="fill:#EA473B;" d="M192.76,246.041v25.058l19.872,18.982c3.063,2.928,8.029,2.928,11.094,0l19.873-18.982v-25.058
	C232.439,246.041,202.121,246.041,192.76,246.041z"/>
<path style="fill:#F2D422;" d="M273.109,246.041h-4.089h-25.421v25.058l19.873,18.982c3.064,2.928,8.029,2.928,11.093,0
	l19.874-18.982v-3.728C294.439,255.59,284.89,246.041,273.109,246.041z"/>
<circle style="fill:#2D303D;" cx="401.6" cy="435.799" r="54.02"/>
<path style="fill:#414356;" d="M388.615,383.355c-25.396,40.993,11.976,92.434,58.931,80.842
	C472.714,423.567,436.007,371.651,388.615,383.355z"/>
<circle style="fill:#2D303D;" cx="92.31" cy="435.799" r="54.02"/>
<circle style="fill:#BABABA;" cx="401.6" cy="435.799" r="25.488"/>
<path style="fill:#D1D0CF;" d="M381.249,420.446c2.788,17.236,13.731,31.731,28.744,39.415c9.951-3.472,17.092-12.933,17.092-24.068
	C427.085,411.322,395.887,401.062,381.249,420.446z"/>
<path style="fill:#93603E;" d="M299.194,131.142L208.9,79.782c-6.552-3.726-8.843-12.058-5.117-18.612
	c4.735-8.303,13.063-9.581,19.175-6.103l90.294,51.36c6.552,3.726,8.843,12.058,5.117,18.612
	C313.634,133.343,305.307,134.62,299.194,131.142z"/>
<path style="fill:#72422A;" d="M258.247,75.14l-35.288-20.072c-6.552-3.728-14.885-1.437-18.612,5.115
	c-4.858,8.519-1.316,16.262,4.553,19.599l35.433,20.154C235.804,89.551,244.994,73.285,258.247,75.14z"/>
<g>
	<path style="fill:#CE322E;" d="M116.499,246.041H91.08v25.058l19.873,18.982c1.532,1.464,3.539,2.196,5.546,2.195V246.041z"/>
	<path style="fill:#CE322E;" d="M218.179,246.041H192.76v25.058l19.873,18.982c1.532,1.464,3.539,2.196,5.546,2.195V246.041z"/>
</g>
<g>
	<path style="fill:#EAB124;" d="M167.338,246.041h-25.419v25.058l19.873,18.982c1.532,1.464,3.539,2.196,5.546,2.195V246.041z"/>
	<path style="fill:#EAB124;" d="M269.018,246.041h-25.419v25.058l19.873,18.982c1.532,1.464,3.539,2.196,5.546,2.195
		L269.018,246.041L269.018,246.041z"/>
	<path style="fill:#EAB124;" d="M65.659,292.277v-46.235h-4.092c-11.779,0-21.328,9.549-21.328,21.33v3.728
		C60.931,290.863,61.329,292.277,65.659,292.277z"/>
</g>
<path style="fill:#414356;" d="M79.327,383.355c-25.167,40.623,11.532,92.543,58.931,80.842
	C163.628,423.242,126.315,371.751,79.327,383.355z"/>
<circle style="fill:#BABABA;" cx="92.31" cy="435.799" r="25.489"/>
<path style="fill:#D1D0CF;" d="M71.961,420.446c2.788,17.237,13.731,31.731,28.744,39.415c9.951-3.471,17.093-12.933,17.093-24.068
	C117.799,411.327,86.606,401.059,71.961,420.446z"/>
<g>
</g>
<g>
</g>
<g>
</g>
<g>
</g>
<g>
</g>
<g>
</g>
<g>
</g>
<g>
</g>
<g>
</g>
<g>
</g>
<g>
</g>
<g>
</g>
<g>
</g>
<g>
</g>
<g>
</g>
</svg>
