<?xml version="1.0" encoding="iso-8859-1"?>
<!-- Generator: Adobe Illustrator 19.0.0, SVG Export Plug-In . SVG Version: 6.00 Build 0)  -->
<svg version="1.1" id="Layer_1" xmlns="http://www.w3.org/2000/svg" xmlns:xlink="http://www.w3.org/1999/xlink" x="0px" y="0px"
	 viewBox="0 0 512.001 512.001" style="enable-background:new 0 0 512.001 512.001;" xml:space="preserve">
<g>
	<path style="fill:#E5AD5C;" d="M305.033,74.586c2.508-0.671,5.031-0.821,7.466-0.547c-6.264-20.809-27.963-33.015-49.099-27.351
		L117.14,85.878c-21.135,5.665-33.827,27.086-28.845,48.236C92.709,130.855,77.878,135.452,305.033,74.586z"/>
	<path style="fill:#E5AD5C;" d="M105.466,169.789c-2.509,0.673-5.032,0.821-7.465,0.546c6.261,20.809,27.963,33.017,49.098,27.353
		l146.26-39.19c21.134-5.664,33.827-27.085,28.845-48.236C317.786,113.523,332.443,108.972,105.466,169.789z"/>
</g>
<g>
	<path style="fill:#CC9244;" d="M135.956,161.619c-33.479,8.97-33.016,9.275-37.955,8.716c6.261,20.809,27.963,33.017,49.098,27.353
		l0.058-0.016C141.244,186.738,137.347,174.555,135.956,161.619z"/>
	<path style="fill:#CC9244;" d="M179.05,69.29l-61.91,16.588c-21.135,5.665-33.827,27.086-28.845,48.236
		c4.12-3.043,2.612-2.153,52.57-15.54C147.953,98.289,161.502,81.038,179.05,69.29z"/>
</g>
<path style="fill:#C16B3D;" d="M449.917,306.27h-36.616v-78.904c0-15.626-12.665-28.293-28.292-28.293H47.869
	c-15.625,0-28.292,12.667-28.292,28.293c0,7.737,0,170.85,0,176.278c5.652,0,321.733,0,326.85,0c0,10.001-2.483,9.688,0.001,0
	c52.179,0,92.544,0,144.716,0c0.05-1.515,0.035,4.128,0.035-56.109C491.179,324.745,472.706,306.27,449.917,306.27z"/>
<g>
	<path style="fill:#A84E27;" d="M46.545,227.366c0-15.626,12.667-28.293,28.292-28.293H47.869
		c-15.625,0-28.292,12.667-28.292,28.293c0,7.737,0,170.85,0,176.278c14.1,0,12.824,0,26.969,0
		C46.545,398.215,46.545,235.102,46.545,227.366z"/>
	<path style="fill:#A84E27;" d="M346.428,403.643h-0.001C346.427,413.644,343.944,413.331,346.428,403.643z"/>
</g>
<path style="fill:#BABABA;" d="M491.853,401.643h-28.564c-4.897,0-437.146,0-443.151,0c-6.982,0-12.641,5.659-12.641,12.64
	c0,6.983,5.66,12.642,12.641,12.642h14.11c10.701,0,452.466,0,457.607,0c6.983,0,12.641-5.66,12.641-12.642
	C504.494,407.302,498.836,401.643,491.853,401.643z"/>
<path style="fill:#999292;" d="M491.853,414.284c-10.666,0-448.291,0-471.717,0c-4.677,0-8.75-2.546-10.936-6.321
	c-1.078,1.86-1.705,4.015-1.705,6.32c0,6.983,5.66,12.642,12.641,12.642h14.11c10.701,0,452.466,0,457.607,0
	c9.727,0,15.808-10.553,10.937-18.962C500.603,411.738,496.529,414.284,491.853,414.284z"/>
<path style="fill:#6EDCF9;" d="M388.194,294.135v-51.913c0-6.703-5.433-12.136-12.135-12.136h-45.002
	c-6.703,0-12.135,5.434-12.135,12.136v51.913c0,6.702,5.434,12.135,12.135,12.135h45.002
	C382.762,306.27,388.194,300.838,388.194,294.135z"/>
<path style="fill:#35B5D3;" d="M348.391,294.135v-51.913c0-6.703,5.434-12.136,12.135-12.136h-29.469
	c-6.703,0-12.135,5.434-12.135,12.136v51.913c0,6.702,5.434,12.135,12.135,12.135h29.47
	C353.824,306.27,348.391,300.838,348.391,294.135z"/>
<path style="fill:#FFA92C;" d="M456.122,358.208c0,10.156,8.233,18.39,18.389,18.39h16.669c0-31.874,0.215-31.768-0.73-36.779
	h-15.938C464.355,339.818,456.122,348.053,456.122,358.208z"/>
<path style="fill:#F98E23;" d="M458.629,348.969c-1.584,2.717-2.507,5.867-2.507,9.239c0,10.156,8.233,18.39,18.389,18.39h16.669
	v-18.48h-16.669C467.727,358.118,461.817,354.435,458.629,348.969z"/>
<path style="fill:#414356;" d="M293.303,313.071c0,11.435-9.27,20.704-20.706,20.704H67.25c-11.435,0-20.705-9.27-20.705-20.704
	v-62.28c0-11.433,9.27-20.704,20.705-20.704h205.346c11.436,0,20.706,9.272,20.706,20.704V313.071z"/>
<path style="fill:#2A2D3F;" d="M76.141,313.071v-62.28c0-11.433,9.27-20.704,20.705-20.704H67.25
	c-11.435,0-20.705,9.272-20.705,20.704v62.28c0,11.435,9.27,20.704,20.705,20.704h29.596
	C85.412,333.775,76.141,324.506,76.141,313.071z"/>
<path style="fill:#FCBA63;" d="M204.303,271.025h-5.563c-6.702,0-12.135,5.434-12.135,12.136v24.109h29.832v-24.109
	C216.437,276.459,211.003,271.025,204.303,271.025z"/>
<path style="fill:#F4615D;" d="M257.396,271.025h-5.563c-6.702,0-12.135,5.434-12.135,12.136v24.109h29.833v-24.109
	C269.531,276.459,264.097,271.025,257.396,271.025z"/>
<path style="fill:#FFA92C;" d="M208.979,271.961c-1.439-0.602-3.018-0.937-4.677-0.937h-5.563c-6.702,0-12.135,5.434-12.135,12.136
	v24.109h14.917v-24.108C201.521,278.117,204.6,273.794,208.979,271.961z"/>
<g>
	<path style="fill:#EA473B;" d="M262.073,271.961c-1.439-0.602-3.019-0.937-4.678-0.937h-5.563c-6.702,0-12.135,5.434-12.135,12.136
		v24.109h14.917v-24.108C254.614,278.117,257.693,273.794,262.073,271.961z"/>
	<path style="fill:#EA473B;" d="M331.165,88.449c-2.533-9.452-11.129-16.054-20.903-16.054c-1.887,0-3.776,0.25-5.617,0.743
		L94.646,129.406c-11.532,3.09-18.4,14.989-15.311,26.521c3.062,11.426,14.858,18.438,26.52,15.311l209.998-56.268
		C327.386,111.88,334.255,99.982,331.165,88.449z"/>
</g>
<path style="fill:#CC2723;" d="M103.265,149.075l209.999-56.268c1.839-0.493,3.729-0.743,5.617-0.743
	c4.77,0,9.252,1.581,12.893,4.289c0.278-2.58,0.101-5.252-0.61-7.904c-2.533-9.452-11.129-16.054-20.903-16.054
	c-1.887,0-3.776,0.25-5.617,0.743L94.646,129.406c-17.404,4.665-21.839,27.473-7.301,38.286
	C88.278,159.057,94.387,151.455,103.265,149.075z"/>
<g>
	<circle style="fill:#2A2D3F;" cx="397.324" cy="414.286" r="52.436"/>
	<circle style="fill:#2A2D3F;" cx="97.091" cy="414.286" r="52.436"/>
</g>
<g>
	<path style="fill:#414356;" d="M87.094,362.807c-5.133,8.105-8.116,17.706-8.116,28.009c0,32.846,29.925,57.758,62.438,51.477
		C165.865,403.685,132.283,354.078,87.094,362.807z"/>
	<path style="fill:#414356;" d="M387.324,362.807c-5.133,8.105-8.116,17.706-8.116,28.009c0,32.846,29.925,57.758,62.438,51.477
		C465.958,403.903,432.788,354.025,387.324,362.807z"/>
</g>
<circle style="fill:#BABABA;" cx="97.091" cy="414.286" r="24.743"/>
<path style="fill:#CECDCC;" d="M97.093,389.541c-6.958,0-13.24,2.875-17.735,7.498c2.055,17.372,12.591,32.142,27.365,40.043
	c8.881-3.755,15.113-12.549,15.113-22.799C121.835,400.619,110.757,389.541,97.093,389.541z"/>
<circle style="fill:#BABABA;" cx="397.324" cy="414.286" r="24.742"/>
<path style="fill:#CECDCC;" d="M379.588,397.039c2.055,17.373,12.591,32.142,27.364,40.043c8.881-3.755,15.113-12.549,15.113-22.799
	C422.065,392.103,395.01,381.178,379.588,397.039z"/>
<path style="fill:#BABABA;" d="M46.545,307.27v6.801c0,11.435,9.27,20.704,20.705,20.704h205.346
	c11.436,0,20.706-9.27,20.706-20.704v-6.801H46.545z"/>
<path style="fill:#999292;" d="M76.141,314.071v-6.801H46.545v6.801c0,11.435,9.27,20.704,20.705,20.704h29.596
	C85.412,334.775,76.141,325.506,76.141,314.071z"/>
<path d="M97.098,382.041c-17.779,0-32.244,14.464-32.244,32.243c0,17.779,14.465,32.244,32.244,32.244s32.243-14.465,32.243-32.244
	C129.341,396.504,114.877,382.041,97.098,382.041z M97.098,431.525c-9.507,0-17.242-7.735-17.242-17.242s7.735-17.241,17.242-17.241
	s17.241,7.734,17.241,17.241C114.34,423.791,106.605,431.525,97.098,431.525z"/>
<path d="M397.327,382.041c-17.778,0-32.242,14.464-32.242,32.243c0,17.779,14.464,32.244,32.242,32.244
	c17.779,0,32.244-14.465,32.244-32.244C429.571,396.504,415.107,382.041,397.327,382.041z M397.327,431.525
	c-9.506,0-17.24-7.735-17.24-17.242s7.734-17.241,17.24-17.241c9.507,0,17.242,7.734,17.242,17.241
	C414.569,423.791,406.835,431.525,397.327,431.525z"/>
<path d="M498.686,395.359c0-52.497,0.062-48.81-0.171-51.735c-2.064-25.387-23.29-44.855-48.592-44.855h-29.115v-71.403
	c0-19.737-16.057-35.794-35.793-35.794h-61.948l-18.493-29.355c18.105-9.091,28.626-28.708,25.775-49.177
	c11.134-11.824,6.619-25.144,6.619-26.144c-2.572-9.597-9.92-16.661-18.803-19.329c-9.012-22.225-33.046-34.461-56.699-28.123
	c-4.001,1.072-6.376,5.186-5.304,9.187c1.072,4.001,5.185,6.373,9.187,5.304c14.185-3.802,28.567,2.122,36.105,13.848
	c-4.478,1.2-202.231,54.187-206.709,55.387c0.663-13.922,10.151-26.243,24.303-30.035l120.117-31.453
	c4.007-1.049,6.406-5.149,5.356-9.156c-1.049-4.006-5.148-6.406-9.156-5.356L115.204,78.633
	c-23.658,6.341-38.35,28.953-35.041,52.705c-6.359,6.752-9.191,16.546-6.62,26.145c2.571,9.594,9.921,16.639,18.798,19.309
	c2.271,5.61,5.5,10.582,9.437,14.782H47.872c-19.736,0-35.793,16.057-35.793,35.794v85.511c0,4.142,3.358,7.501,7.501,7.501
	s7.501-3.358,7.501-7.501v-85.511c0-11.465,9.327-20.792,20.791-20.792c9.964,0,331.441,0,337.14,0
	c11.464,0,20.791,9.327,20.791,20.792v78.904c0,4.142,3.358,7.501,7.501,7.501h36.616c13.143,0,24.549,7.555,30.123,18.546h-5.53
	c-14.276,0-25.89,11.614-25.89,25.891s11.614,25.891,25.89,25.891h9.168v10.044h-29.898c-4.524-12.681-13.527-24.147-26.116-31.546
	l0,0c-31.804-18.716-74.04-4.417-86.806,31.544H153.561c-18.73-52.763-93.999-53.31-112.93,0H27.083V338.88
	c0-4.142-3.358-7.501-7.501-7.501s-7.501,3.358-7.501,7.501v56.958C4.979,398.954,0,406.044,0,414.283
	c0,11.106,9.036,20.143,20.142,20.143h20.508c8.293,23.171,30.461,39.798,56.448,39.798c25.986,0,48.154-16.627,56.447-39.798
	h187.336c8.293,23.171,30.46,39.798,56.446,39.798c25.987,0,48.155-16.627,56.448-39.798h38.082
	c11.106,0,20.142-9.036,20.142-20.143C512,405.577,506.436,398.164,498.686,395.359z M289.966,167.175l15.37,24.398H198.912
	L289.966,167.175z M96.981,138.1c224.361-60.117,209.89-57.086,214.736-56.605c4.996,0.589,9.38,4.136,10.76,9.284v-0.001
	c1.709,6.378-1.799,12.871-7.798,15.127c-0.374,0.139-0.756,0.266-1.149,0.371c-222.354,59.579-210.025,57.061-214.763,56.602
	C85.097,161.239,83.459,141.721,96.981,138.1z M109.058,176.594c4.517-1.21,202.542-54.27,206.71-55.386
	c-0.646,13.534-9.688,26.028-24.375,30.053l-146.23,39.181C131.114,194.208,116.663,188.426,109.058,176.594z M474.516,369.097
	c-6.004,0-10.888-4.885-10.888-10.889s4.885-10.889,10.888-10.889h9.162c0.007,1.186,0.005-5.207,0.005,21.777h-9.167V369.097z
	 M37.379,419.425H20.142c-2.834,0-5.141-2.306-5.141-5.142c0-2.833,2.306-5.14,5.141-5.14h17.237
	C37.071,412.72,37.106,416.244,37.379,419.425z M97.098,459.223c-30.91,0-53.015-30.894-42.158-60.5
	c14.592-39.405,70.305-38.92,84.413,0.27C149.838,427.889,128.475,459.223,97.098,459.223z M337.611,419.425H156.816
	c0.309-3.585,0.271-7.133,0-10.28h180.794C337.606,409.194,337.135,413.887,337.611,419.425z M397.327,459.223
	c-21.192,0-38.993-14.752-43.705-34.525c-14.113-59.534,80.873-80.397,88.338-15.581
	C445.023,435.584,424.298,459.223,397.327,459.223z M491.858,419.425h-34.812c0.278-3.237,0.304-6.758,0-10.28h34.104
	C499.243,409.145,498.394,419.425,491.858,419.425z"/>
<path d="M395.701,294.135v-51.913c0-10.828-8.809-19.637-19.636-19.637h-45.003c-10.827,0-19.636,8.809-19.636,19.637v51.913
	c0,10.827,8.809,19.636,19.636,19.636h45.003C386.892,313.771,395.701,304.963,395.701,294.135z M326.427,294.135v-51.913
	c0-2.556,2.079-4.636,4.635-4.636h45.003c2.555,0,4.635,2.079,4.635,4.636v51.913c0,2.555-2.079,4.635-4.635,4.635h-45.003
	C328.507,298.769,326.427,296.691,326.427,294.135z"/>
<path d="M327.016,324.726c-4.142,0-7.501,3.358-7.501,7.501s3.358,7.501,7.501,7.501h16.181c4.142,0,7.501-3.358,7.501-7.501
	s-3.358-7.501-7.501-7.501H327.016z"/>
<path d="M67.256,237.587h162.12c4.142,0,7.501-3.358,7.501-7.501s-3.358-7.501-7.501-7.501H67.256
	c-15.553,0-28.206,12.652-28.206,28.205c0,6.304,0,55.086,0,62.28c0,15.553,12.653,28.205,28.206,28.205h205.346
	c15.554,0,28.207-12.652,28.207-28.205v-6.801v-55.48c0-15.553-12.653-28.205-28.207-28.205h-17.224
	c-4.142,0-7.501,3.358-7.501,7.501s3.358,7.501,7.501,7.501h17.224c7.282,0,13.206,5.923,13.206,13.203v47.979h-8.77v-16.607
	c0-8.923-5.989-16.462-14.154-18.843v-5.458c0-4.142-3.358-7.501-7.501-7.501c-4.142,0-7.501,3.358-7.501,7.501v5.065
	c-8.938,1.835-15.68,9.763-15.68,19.236v16.608h-8.259v-16.608c0-9.199-6.366-16.918-14.917-19.04v-5.261
	c0-4.142-3.358-7.501-7.501-7.501c-4.142,0-7.501,3.358-7.501,7.501v5.261c-8.551,2.122-14.916,9.841-14.916,19.039v16.608h-8.076
	v-42.606c0-6.454-5.251-11.704-11.704-11.704H73.502c-6.454,0-11.703,5.251-11.703,11.704v42.606h-7.747v-47.979
	C54.052,243.51,59.976,237.587,67.256,237.587z M61.06,324.723c-3.928-2.098-6.718-6.155-6.972-10.952c25.572,0,209.531,0,231.685,0
	c-0.184,3.457-1.675,6.519-3.957,8.741c-0.48,0.469-1.228,1.096-1.939,1.567c-0.601,0.399-1.512,0.89-2.215,1.184
	c-0.69,0.287-1.706,0.599-2.442,0.749c-0.256,0.051-1.215,0.188-1.289,0.195C272.929,326.307,65.645,327.167,61.06,324.723z
	 M247.205,282.161c0-2.556,2.079-4.635,4.635-4.635h5.563c2.555,0,4.635,2.079,4.635,4.635v16.608h-14.832L247.205,282.161
	L247.205,282.161z M194.112,282.161c0-2.556,2.079-4.635,4.635-4.635h5.563c2.555,0,4.633,2.079,4.633,4.635v16.608h-14.831V282.161
	z M156.032,259.462v12.153H76.801v-12.153H156.032z M76.801,286.617h79.233v12.152H76.801V286.617z"/>
<g>
</g>
<g>
</g>
<g>
</g>
<g>
</g>
<g>
</g>
<g>
</g>
<g>
</g>
<g>
</g>
<g>
</g>
<g>
</g>
<g>
</g>
<g>
</g>
<g>
</g>
<g>
</g>
<g>
</g>
</svg>
